<mxfile host="app.diagrams.net" modified="2024-04-17T18:22:07.528Z" agent="Mozilla/5.0 (Windows NT 10.0; Win64; x64) AppleWebKit/537.36 (KHTML, like Gecko) Chrome/123.0.0.0 Safari/537.36" version="24.2.5" etag="Wr-I8-3B8sPR7nPra43b" type="device">
  <diagram id="34p7FkrFsKZ9s6v67Ve8" name="Página-1">
    <mxGraphModel dx="1120" dy="529" grid="1" gridSize="10" guides="1" tooltips="1" connect="1" arrows="1" fold="1" page="1" pageScale="1" pageWidth="827" pageHeight="1169" math="0" shadow="0">
      <root>
        <mxCell id="0" />
        <mxCell id="1" parent="0" />
        <mxCell id="0jVuY58EehfPMEDOc1iu-1" value="&lt;span style=&quot;font-family: Calibri; font-weight: bold;&quot;&gt;&lt;font style=&quot;font-size: 18px;&quot;&gt;categorias&lt;/font&gt;&lt;/span&gt;" style="whiteSpace=wrap;html=1;align=center;" vertex="1" parent="1">
          <mxGeometry x="600" y="420" width="100" height="40" as="geometry" />
        </mxCell>
        <mxCell id="0jVuY58EehfPMEDOc1iu-28" style="edgeStyle=orthogonalEdgeStyle;rounded=0;orthogonalLoop=1;jettySize=auto;html=1;entryX=0.5;entryY=0;entryDx=0;entryDy=0;" edge="1" parent="1" source="0jVuY58EehfPMEDOc1iu-2" target="0jVuY58EehfPMEDOc1iu-17">
          <mxGeometry relative="1" as="geometry" />
        </mxCell>
        <mxCell id="0jVuY58EehfPMEDOc1iu-2" value="&lt;span style=&quot;font-family: Calibri; font-weight: bold;&quot;&gt;&lt;font style=&quot;font-size: 18px;&quot;&gt;livros&lt;/font&gt;&lt;/span&gt;" style="whiteSpace=wrap;html=1;align=center;" vertex="1" parent="1">
          <mxGeometry x="600" y="250" width="100" height="40" as="geometry" />
        </mxCell>
        <mxCell id="0jVuY58EehfPMEDOc1iu-26" style="edgeStyle=orthogonalEdgeStyle;rounded=0;orthogonalLoop=1;jettySize=auto;html=1;" edge="1" parent="1" source="0jVuY58EehfPMEDOc1iu-3" target="0jVuY58EehfPMEDOc1iu-18">
          <mxGeometry relative="1" as="geometry" />
        </mxCell>
        <mxCell id="0jVuY58EehfPMEDOc1iu-3" value="&lt;span style=&quot;font-family: Calibri; font-weight: bold;&quot;&gt;&lt;font style=&quot;font-size: 18px;&quot;&gt;estantes&lt;/font&gt;&lt;/span&gt;" style="whiteSpace=wrap;html=1;align=center;" vertex="1" parent="1">
          <mxGeometry x="600" y="70" width="100" height="40" as="geometry" />
        </mxCell>
        <mxCell id="0jVuY58EehfPMEDOc1iu-4" value="&lt;span style=&quot;font-family: Calibri; font-weight: bold;&quot;&gt;&lt;font style=&quot;font-size: 18px;&quot;&gt;atendentes&lt;/font&gt;&lt;/span&gt;" style="whiteSpace=wrap;html=1;align=center;" vertex="1" parent="1">
          <mxGeometry x="330" y="70" width="100" height="40" as="geometry" />
        </mxCell>
        <mxCell id="0jVuY58EehfPMEDOc1iu-22" style="edgeStyle=orthogonalEdgeStyle;rounded=0;orthogonalLoop=1;jettySize=auto;html=1;" edge="1" parent="1" source="0jVuY58EehfPMEDOc1iu-5" target="0jVuY58EehfPMEDOc1iu-20">
          <mxGeometry relative="1" as="geometry" />
        </mxCell>
        <mxCell id="0jVuY58EehfPMEDOc1iu-5" value="&lt;span style=&quot;font-family: Calibri; font-weight: bold;&quot;&gt;&lt;font style=&quot;font-size: 18px;&quot;&gt;Biblioteca&lt;/font&gt;&lt;/span&gt;" style="whiteSpace=wrap;html=1;align=center;" vertex="1" parent="1">
          <mxGeometry x="60" y="70" width="100" height="40" as="geometry" />
        </mxCell>
        <mxCell id="0jVuY58EehfPMEDOc1iu-8" value="endereco" style="ellipse;whiteSpace=wrap;html=1;align=center;" vertex="1" parent="1">
          <mxGeometry x="420" width="60" height="40" as="geometry" />
        </mxCell>
        <mxCell id="0jVuY58EehfPMEDOc1iu-16" style="edgeStyle=orthogonalEdgeStyle;rounded=0;orthogonalLoop=1;jettySize=auto;html=1;" edge="1" parent="1" source="0jVuY58EehfPMEDOc1iu-9" target="0jVuY58EehfPMEDOc1iu-4">
          <mxGeometry relative="1" as="geometry" />
        </mxCell>
        <mxCell id="0jVuY58EehfPMEDOc1iu-9" value="Nome" style="ellipse;whiteSpace=wrap;html=1;align=center;" vertex="1" parent="1">
          <mxGeometry x="360" width="60" height="40" as="geometry" />
        </mxCell>
        <mxCell id="0jVuY58EehfPMEDOc1iu-14" style="edgeStyle=orthogonalEdgeStyle;rounded=0;orthogonalLoop=1;jettySize=auto;html=1;entryX=0;entryY=0;entryDx=0;entryDy=0;" edge="1" parent="1" source="0jVuY58EehfPMEDOc1iu-10" target="0jVuY58EehfPMEDOc1iu-4">
          <mxGeometry relative="1" as="geometry" />
        </mxCell>
        <mxCell id="0jVuY58EehfPMEDOc1iu-10" value="&lt;u&gt;Codigo&lt;/u&gt;" style="ellipse;whiteSpace=wrap;html=1;align=center;" vertex="1" parent="1">
          <mxGeometry x="300" width="60" height="40" as="geometry" />
        </mxCell>
        <mxCell id="0jVuY58EehfPMEDOc1iu-12" style="edgeStyle=orthogonalEdgeStyle;rounded=0;orthogonalLoop=1;jettySize=auto;html=1;entryX=0.5;entryY=1;entryDx=0;entryDy=0;" edge="1" parent="1" source="0jVuY58EehfPMEDOc1iu-11" target="0jVuY58EehfPMEDOc1iu-4">
          <mxGeometry relative="1" as="geometry" />
        </mxCell>
        <mxCell id="0jVuY58EehfPMEDOc1iu-11" value="Telefone" style="ellipse;shape=doubleEllipse;margin=3;whiteSpace=wrap;html=1;align=center;" vertex="1" parent="1">
          <mxGeometry x="350" y="140" width="60" height="40" as="geometry" />
        </mxCell>
        <mxCell id="0jVuY58EehfPMEDOc1iu-15" style="edgeStyle=orthogonalEdgeStyle;rounded=0;orthogonalLoop=1;jettySize=auto;html=1;entryX=0.92;entryY=0;entryDx=0;entryDy=0;entryPerimeter=0;" edge="1" parent="1" source="0jVuY58EehfPMEDOc1iu-8" target="0jVuY58EehfPMEDOc1iu-4">
          <mxGeometry relative="1" as="geometry" />
        </mxCell>
        <mxCell id="0jVuY58EehfPMEDOc1iu-29" style="edgeStyle=orthogonalEdgeStyle;rounded=0;orthogonalLoop=1;jettySize=auto;html=1;exitX=0.5;exitY=1;exitDx=0;exitDy=0;" edge="1" parent="1" source="0jVuY58EehfPMEDOc1iu-17" target="0jVuY58EehfPMEDOc1iu-1">
          <mxGeometry relative="1" as="geometry" />
        </mxCell>
        <mxCell id="0jVuY58EehfPMEDOc1iu-17" value="Relationship" style="shape=rhombus;perimeter=rhombusPerimeter;whiteSpace=wrap;html=1;align=center;" vertex="1" parent="1">
          <mxGeometry x="605" y="330" width="90" height="60" as="geometry" />
        </mxCell>
        <mxCell id="0jVuY58EehfPMEDOc1iu-27" style="edgeStyle=orthogonalEdgeStyle;rounded=0;orthogonalLoop=1;jettySize=auto;html=1;" edge="1" parent="1" source="0jVuY58EehfPMEDOc1iu-18" target="0jVuY58EehfPMEDOc1iu-2">
          <mxGeometry relative="1" as="geometry" />
        </mxCell>
        <mxCell id="0jVuY58EehfPMEDOc1iu-18" value="Relationship" style="shape=rhombus;perimeter=rhombusPerimeter;whiteSpace=wrap;html=1;align=center;" vertex="1" parent="1">
          <mxGeometry x="610" y="150" width="80" height="60" as="geometry" />
        </mxCell>
        <mxCell id="0jVuY58EehfPMEDOc1iu-25" style="edgeStyle=orthogonalEdgeStyle;rounded=0;orthogonalLoop=1;jettySize=auto;html=1;entryX=0;entryY=0.5;entryDx=0;entryDy=0;" edge="1" parent="1" source="0jVuY58EehfPMEDOc1iu-19" target="0jVuY58EehfPMEDOc1iu-3">
          <mxGeometry relative="1" as="geometry" />
        </mxCell>
        <mxCell id="0jVuY58EehfPMEDOc1iu-19" value="Relationship" style="shape=rhombus;perimeter=rhombusPerimeter;whiteSpace=wrap;html=1;align=center;" vertex="1" parent="1">
          <mxGeometry x="470" y="60" width="90" height="60" as="geometry" />
        </mxCell>
        <mxCell id="0jVuY58EehfPMEDOc1iu-23" style="edgeStyle=orthogonalEdgeStyle;rounded=0;orthogonalLoop=1;jettySize=auto;html=1;entryX=0;entryY=0.5;entryDx=0;entryDy=0;" edge="1" parent="1" source="0jVuY58EehfPMEDOc1iu-20" target="0jVuY58EehfPMEDOc1iu-4">
          <mxGeometry relative="1" as="geometry" />
        </mxCell>
        <mxCell id="0jVuY58EehfPMEDOc1iu-20" value="Relationship" style="shape=rhombus;perimeter=rhombusPerimeter;whiteSpace=wrap;html=1;align=center;" vertex="1" parent="1">
          <mxGeometry x="190" y="60" width="100" height="60" as="geometry" />
        </mxCell>
        <mxCell id="0jVuY58EehfPMEDOc1iu-24" style="rounded=0;orthogonalLoop=1;jettySize=auto;html=1;entryX=0.089;entryY=0.45;entryDx=0;entryDy=0;entryPerimeter=0;" edge="1" parent="1" source="0jVuY58EehfPMEDOc1iu-4" target="0jVuY58EehfPMEDOc1iu-19">
          <mxGeometry relative="1" as="geometry" />
        </mxCell>
        <mxCell id="0jVuY58EehfPMEDOc1iu-33" style="edgeStyle=orthogonalEdgeStyle;rounded=0;orthogonalLoop=1;jettySize=auto;html=1;" edge="1" parent="1" source="0jVuY58EehfPMEDOc1iu-30" target="0jVuY58EehfPMEDOc1iu-3">
          <mxGeometry relative="1" as="geometry" />
        </mxCell>
        <mxCell id="0jVuY58EehfPMEDOc1iu-30" value="&lt;u&gt;Codigo&lt;/u&gt;" style="ellipse;whiteSpace=wrap;html=1;align=center;" vertex="1" parent="1">
          <mxGeometry x="600" width="60" height="40" as="geometry" />
        </mxCell>
        <mxCell id="0jVuY58EehfPMEDOc1iu-35" style="edgeStyle=orthogonalEdgeStyle;rounded=0;orthogonalLoop=1;jettySize=auto;html=1;exitX=0;exitY=0.5;exitDx=0;exitDy=0;entryX=1;entryY=0.5;entryDx=0;entryDy=0;" edge="1" parent="1" source="0jVuY58EehfPMEDOc1iu-31" target="0jVuY58EehfPMEDOc1iu-3">
          <mxGeometry relative="1" as="geometry" />
        </mxCell>
        <mxCell id="0jVuY58EehfPMEDOc1iu-31" value="Localização" style="ellipse;whiteSpace=wrap;html=1;align=center;" vertex="1" parent="1">
          <mxGeometry x="730" y="70" width="60" height="40" as="geometry" />
        </mxCell>
        <mxCell id="0jVuY58EehfPMEDOc1iu-34" style="edgeStyle=orthogonalEdgeStyle;rounded=0;orthogonalLoop=1;jettySize=auto;html=1;" edge="1" parent="1" source="0jVuY58EehfPMEDOc1iu-32" target="0jVuY58EehfPMEDOc1iu-3">
          <mxGeometry relative="1" as="geometry" />
        </mxCell>
        <mxCell id="0jVuY58EehfPMEDOc1iu-32" value="capacidade" style="ellipse;whiteSpace=wrap;html=1;align=center;" vertex="1" parent="1">
          <mxGeometry x="660" width="60" height="40" as="geometry" />
        </mxCell>
        <mxCell id="0jVuY58EehfPMEDOc1iu-43" style="edgeStyle=orthogonalEdgeStyle;rounded=0;orthogonalLoop=1;jettySize=auto;html=1;entryX=0;entryY=0;entryDx=0;entryDy=0;" edge="1" parent="1" source="0jVuY58EehfPMEDOc1iu-36" target="0jVuY58EehfPMEDOc1iu-2">
          <mxGeometry relative="1" as="geometry" />
        </mxCell>
        <mxCell id="0jVuY58EehfPMEDOc1iu-36" value="&lt;u&gt;ISBN&lt;/u&gt;" style="ellipse;whiteSpace=wrap;html=1;align=center;" vertex="1" parent="1">
          <mxGeometry x="490" y="210" width="60" height="40" as="geometry" />
        </mxCell>
        <mxCell id="0jVuY58EehfPMEDOc1iu-42" style="edgeStyle=orthogonalEdgeStyle;rounded=0;orthogonalLoop=1;jettySize=auto;html=1;entryX=0;entryY=0.5;entryDx=0;entryDy=0;" edge="1" parent="1" source="0jVuY58EehfPMEDOc1iu-37" target="0jVuY58EehfPMEDOc1iu-2">
          <mxGeometry relative="1" as="geometry" />
        </mxCell>
        <mxCell id="0jVuY58EehfPMEDOc1iu-37" value="Edição" style="ellipse;whiteSpace=wrap;html=1;align=center;" vertex="1" parent="1">
          <mxGeometry x="490" y="250" width="60" height="40" as="geometry" />
        </mxCell>
        <mxCell id="0jVuY58EehfPMEDOc1iu-40" style="edgeStyle=orthogonalEdgeStyle;rounded=0;orthogonalLoop=1;jettySize=auto;html=1;entryX=1;entryY=0.5;entryDx=0;entryDy=0;" edge="1" parent="1" source="0jVuY58EehfPMEDOc1iu-38" target="0jVuY58EehfPMEDOc1iu-2">
          <mxGeometry relative="1" as="geometry" />
        </mxCell>
        <mxCell id="0jVuY58EehfPMEDOc1iu-38" value="ano de publicação" style="ellipse;whiteSpace=wrap;html=1;align=center;" vertex="1" parent="1">
          <mxGeometry x="750" y="270" width="60" height="40" as="geometry" />
        </mxCell>
        <mxCell id="0jVuY58EehfPMEDOc1iu-41" style="edgeStyle=orthogonalEdgeStyle;rounded=0;orthogonalLoop=1;jettySize=auto;html=1;" edge="1" parent="1" source="0jVuY58EehfPMEDOc1iu-39" target="0jVuY58EehfPMEDOc1iu-2">
          <mxGeometry relative="1" as="geometry" />
        </mxCell>
        <mxCell id="0jVuY58EehfPMEDOc1iu-39" value="N de paginas" style="ellipse;whiteSpace=wrap;html=1;align=center;" vertex="1" parent="1">
          <mxGeometry x="750" y="230" width="60" height="40" as="geometry" />
        </mxCell>
        <mxCell id="0jVuY58EehfPMEDOc1iu-47" style="edgeStyle=orthogonalEdgeStyle;rounded=0;orthogonalLoop=1;jettySize=auto;html=1;" edge="1" parent="1" source="0jVuY58EehfPMEDOc1iu-44" target="0jVuY58EehfPMEDOc1iu-1">
          <mxGeometry relative="1" as="geometry" />
        </mxCell>
        <mxCell id="0jVuY58EehfPMEDOc1iu-44" value="&lt;u&gt;Codigo&lt;/u&gt;" style="ellipse;whiteSpace=wrap;html=1;align=center;" vertex="1" parent="1">
          <mxGeometry x="510" y="420" width="60" height="40" as="geometry" />
        </mxCell>
        <mxCell id="0jVuY58EehfPMEDOc1iu-46" style="edgeStyle=orthogonalEdgeStyle;rounded=0;orthogonalLoop=1;jettySize=auto;html=1;entryX=1;entryY=0.5;entryDx=0;entryDy=0;" edge="1" parent="1" source="0jVuY58EehfPMEDOc1iu-45" target="0jVuY58EehfPMEDOc1iu-1">
          <mxGeometry relative="1" as="geometry" />
        </mxCell>
        <mxCell id="0jVuY58EehfPMEDOc1iu-45" value="Nome" style="ellipse;whiteSpace=wrap;html=1;align=center;" vertex="1" parent="1">
          <mxGeometry x="730" y="420" width="60" height="40" as="geometry" />
        </mxCell>
        <mxCell id="0jVuY58EehfPMEDOc1iu-48" value="&lt;u&gt;Codigo&lt;/u&gt;" style="ellipse;whiteSpace=wrap;html=1;align=center;" vertex="1" parent="1">
          <mxGeometry x="60" width="60" height="40" as="geometry" />
        </mxCell>
        <mxCell id="0jVuY58EehfPMEDOc1iu-49" value="Nome" style="ellipse;whiteSpace=wrap;html=1;align=center;" vertex="1" parent="1">
          <mxGeometry x="120" width="60" height="40" as="geometry" />
        </mxCell>
        <mxCell id="0jVuY58EehfPMEDOc1iu-50" style="edgeStyle=orthogonalEdgeStyle;rounded=0;orthogonalLoop=1;jettySize=auto;html=1;entryX=0.91;entryY=0.05;entryDx=0;entryDy=0;entryPerimeter=0;" edge="1" parent="1" source="0jVuY58EehfPMEDOc1iu-49" target="0jVuY58EehfPMEDOc1iu-5">
          <mxGeometry relative="1" as="geometry" />
        </mxCell>
        <mxCell id="0jVuY58EehfPMEDOc1iu-53" style="edgeStyle=orthogonalEdgeStyle;rounded=0;orthogonalLoop=1;jettySize=auto;html=1;" edge="1" parent="1" source="0jVuY58EehfPMEDOc1iu-52" target="0jVuY58EehfPMEDOc1iu-5">
          <mxGeometry relative="1" as="geometry" />
        </mxCell>
        <mxCell id="0jVuY58EehfPMEDOc1iu-52" value="endereco" style="ellipse;whiteSpace=wrap;html=1;align=center;" vertex="1" parent="1">
          <mxGeometry x="80" y="140" width="60" height="40" as="geometry" />
        </mxCell>
        <mxCell id="0jVuY58EehfPMEDOc1iu-54" style="rounded=0;orthogonalLoop=1;jettySize=auto;html=1;entryX=0.15;entryY=-0.05;entryDx=0;entryDy=0;entryPerimeter=0;" edge="1" parent="1" source="0jVuY58EehfPMEDOc1iu-48" target="0jVuY58EehfPMEDOc1iu-5">
          <mxGeometry relative="1" as="geometry" />
        </mxCell>
        <mxCell id="0jVuY58EehfPMEDOc1iu-55" value="N" style="text;html=1;align=center;verticalAlign=middle;resizable=0;points=[];autosize=1;strokeColor=none;fillColor=none;" vertex="1" parent="1">
          <mxGeometry x="300" y="60" width="30" height="30" as="geometry" />
        </mxCell>
        <mxCell id="0jVuY58EehfPMEDOc1iu-56" value="1" style="text;html=1;align=center;verticalAlign=middle;resizable=0;points=[];autosize=1;strokeColor=none;fillColor=none;" vertex="1" parent="1">
          <mxGeometry x="160" y="60" width="30" height="30" as="geometry" />
        </mxCell>
        <mxCell id="0jVuY58EehfPMEDOc1iu-57" value="N" style="text;html=1;align=center;verticalAlign=middle;resizable=0;points=[];autosize=1;strokeColor=none;fillColor=none;" vertex="1" parent="1">
          <mxGeometry x="430" y="60" width="30" height="30" as="geometry" />
        </mxCell>
        <mxCell id="0jVuY58EehfPMEDOc1iu-58" value="N" style="text;html=1;align=center;verticalAlign=middle;resizable=0;points=[];autosize=1;strokeColor=none;fillColor=none;" vertex="1" parent="1">
          <mxGeometry x="570" y="60" width="30" height="30" as="geometry" />
        </mxCell>
        <mxCell id="0jVuY58EehfPMEDOc1iu-59" value="N" style="text;html=1;align=center;verticalAlign=middle;resizable=0;points=[];autosize=1;strokeColor=none;fillColor=none;" vertex="1" parent="1">
          <mxGeometry x="620" y="220" width="30" height="30" as="geometry" />
        </mxCell>
        <mxCell id="0jVuY58EehfPMEDOc1iu-60" value="1" style="text;html=1;align=center;verticalAlign=middle;resizable=0;points=[];autosize=1;strokeColor=none;fillColor=none;" vertex="1" parent="1">
          <mxGeometry x="620" y="108" width="30" height="30" as="geometry" />
        </mxCell>
        <mxCell id="0jVuY58EehfPMEDOc1iu-61" value="1" style="text;html=1;align=center;verticalAlign=middle;resizable=0;points=[];autosize=1;strokeColor=none;fillColor=none;" vertex="1" parent="1">
          <mxGeometry x="620" y="390" width="30" height="30" as="geometry" />
        </mxCell>
        <mxCell id="0jVuY58EehfPMEDOc1iu-63" value="N" style="text;html=1;align=center;verticalAlign=middle;resizable=0;points=[];autosize=1;strokeColor=none;fillColor=none;" vertex="1" parent="1">
          <mxGeometry x="620" y="290" width="30" height="30" as="geometry" />
        </mxCell>
      </root>
    </mxGraphModel>
  </diagram>
</mxfile>
